<svg width="68" height="69" viewBox="0 0 68 69" fill="none" xmlns="http://www.w3.org/2000/svg">
    <defs>
        <linearGradient id="gradient" x1="0%" y1="0%" x2="100%" y2="100%">
            <stop offset="0%" style="stop-color:${hueColorOne};stop-opacity:1" />
            <stop offset="100%" style="stop-color:${hueColorTwo};stop-opacity:1" />
        </linearGradient>
    </defs>
    <path opacity="0.89" fill-rule="evenodd" clip-rule="evenodd"
        d="M47.5417 3.88487C48.7517 4.31687 49.7517 4.98387 50.5417 5.88487C52.5417 7.88487 54.5417 9.88487 56.5417 11.8849C52.1487 9.02187 47.4817 6.68887 42.5417 4.88487C40.0247 3.41187 37.1917 2.74487 34.0417 2.88487C30.8557 3.12887 27.6887 3.46187 24.5417 3.88487C27.3977 2.37887 30.5647 1.71287 34.0417 1.88487C38.6367 2.03087 43.1367 2.69787 47.5417 3.88487Z"
        fill="url(#gradient)" />
    <path opacity="0.216" fill-rule="evenodd" clip-rule="evenodd"
        d="M47.5417 3.885C43.1367 2.698 38.6367 2.031 34.0417 1.885C30.5647 1.713 27.3977 2.379 24.5417 3.885C23.2087 3.885 21.8747 3.885 20.5417 3.885C29.5137 -1.295 38.5137 -1.295 47.5417 3.885Z"
        fill="url(#gradient)" />
    <path fill-rule="evenodd" clip-rule="evenodd"
        d="M42.5417 4.88492C36.2147 5.93792 29.8817 6.10492 23.5417 5.38492C19.8207 6.22792 16.4877 7.72792 13.5417 9.88492C14.5417 8.55192 15.5417 7.21792 16.5417 5.88492C17.6467 4.78492 18.9797 4.11792 20.5417 3.88492C21.8747 3.88492 23.2087 3.88492 24.5417 3.88492C27.6887 3.46192 30.8557 3.12892 34.0417 2.88492C37.1917 2.74492 40.0247 3.41192 42.5417 4.88492Z"
        fill="url(#gradient)" />
    <path fill-rule="evenodd" clip-rule="evenodd"
        d="M42.5417 4.88525C47.4817 6.68925 52.1487 9.02225 56.5417 11.8853C58.2407 13.9513 59.5737 16.2853 60.5417 18.8853C61.2747 22.4553 62.2747 25.9553 63.5417 29.3853C64.2397 34.1963 64.5727 39.0293 64.5417 43.8853C63.9927 46.2863 63.1597 48.6203 62.0417 50.8853C59.7377 52.8163 57.9037 55.1493 56.5417 57.8853C52.7837 60.9873 48.7837 63.6543 44.5417 65.8853C37.8747 67.2183 31.2087 67.2183 24.5417 65.8853C22.4837 64.4523 20.1497 63.7853 17.5417 63.8853C14.8797 61.3893 12.3797 58.7233 10.0417 55.8853C8.34475 52.7133 6.51175 49.7133 4.54175 46.8853C4.08875 42.1913 3.42175 37.5253 2.54175 32.8853C2.59175 29.4093 3.25875 26.0753 4.54175 22.8853C5.97475 20.8273 6.64175 18.4933 6.54175 15.8853C8.87475 13.8853 11.2087 11.8853 13.5417 9.88525C16.4877 7.72825 19.8207 6.22825 23.5417 5.38525C29.8817 6.10525 36.2147 5.93825 42.5417 4.88525Z"
        fill="url(#gradient)" />
    <path opacity="0.859" fill-rule="evenodd" clip-rule="evenodd"
        d="M16.5417 5.88525C15.5417 7.21825 14.5417 8.55225 13.5417 9.88525C11.2087 11.8853 8.87475 13.8853 6.54175 15.8853C8.87475 11.5523 12.2087 8.21825 16.5417 5.88525Z"
        fill="url(#gradient)" />
    <path opacity="0.89" fill-rule="evenodd" clip-rule="evenodd"
        d="M50.5417 5.88525C57.3417 8.68925 61.6757 13.6893 63.5417 20.8853C62.2637 20.6033 61.2637 19.9363 60.5417 18.8853C59.5737 16.2853 58.2407 13.9513 56.5417 11.8853C54.5417 9.88525 52.5417 7.88525 50.5417 5.88525Z"
        fill="url(#gradient)" />
    <path opacity="0.553" fill-rule="evenodd" clip-rule="evenodd"
        d="M6.54174 15.8853C6.64174 18.4933 5.97474 20.8273 4.54174 22.8853C3.07574 23.7323 2.24174 25.0653 2.04174 26.8853C1.30274 32.9433 1.63574 38.9433 3.04174 44.8853C3.31974 45.8013 3.81974 46.4673 4.54174 46.8853C6.51174 49.7133 8.34475 52.7133 10.0417 55.8853C12.3797 58.7233 14.8797 61.3893 17.5417 63.8853C1.85774 54.3473 -3.30925 40.6813 2.04174 22.8853C3.06774 20.1463 4.56774 17.8133 6.54174 15.8853Z"
        fill="url(#gradient)" />
    <path fill-rule="evenodd" clip-rule="evenodd"
        d="M60.5417 18.8853C61.2637 19.9363 62.2637 20.6033 63.5417 20.8853C64.3797 21.2273 64.7137 21.8933 64.5417 22.8853C65.6857 30.0393 65.6857 37.0393 64.5417 43.8853C64.5727 39.0293 64.2397 34.1963 63.5417 29.3853C62.2747 25.9553 61.2747 22.4553 60.5417 18.8853Z"
        fill="url(#gradient)" />
    <path fill-rule="evenodd" clip-rule="evenodd"
        d="M4.54171 22.8853C3.25871 26.0753 2.59171 29.4093 2.54171 32.8853C3.42171 37.5253 4.08871 42.1913 4.54171 46.8853C3.81971 46.4673 3.31971 45.8013 3.04171 44.8853C1.63571 38.9433 1.30271 32.9433 2.04171 26.8853C2.24171 25.0653 3.07571 23.7323 4.54171 22.8853Z"
        fill="url(#gradient)" />
    <path opacity="0.769" fill-rule="evenodd" clip-rule="evenodd"
        d="M64.5417 22.8853C70.4417 40.3543 65.7747 54.5203 50.5417 65.3853C47.9457 66.5213 45.2787 67.3543 42.5417 67.8853C43.2087 67.2183 43.8747 66.5523 44.5417 65.8853C48.7837 63.6543 52.7837 60.9873 56.5417 57.8853C57.9037 55.1493 59.7377 52.8163 62.0417 50.8853C63.1597 48.6203 63.9927 46.2863 64.5417 43.8853C65.6857 37.0393 65.6857 30.0393 64.5417 22.8853Z"
        fill="url(#gradient)" />
    <path opacity="0.592" fill-rule="evenodd" clip-rule="evenodd"
        d="M17.5417 63.8853C20.1497 63.7853 22.4837 64.4523 24.5417 65.8853C25.2087 66.5523 25.8747 67.2183 26.5417 67.8853C22.9397 67.6933 19.9397 66.3593 17.5417 63.8853Z"
        fill="url(#gradient)" />
    <path opacity="0.824" fill-rule="evenodd" clip-rule="evenodd"
        d="M24.5417 65.8853C31.2087 67.2183 37.8747 67.2183 44.5417 65.8853C43.8747 66.5523 43.2087 67.2183 42.5417 67.8853C37.2087 69.2183 31.8747 69.2183 26.5417 67.8853C25.8747 67.2183 25.2087 66.5523 24.5417 65.8853Z"
        fill="url(#gradient)" />
</svg>